# xmcd CD database file
#
# Track frame offsets:
#	150
#	20530
#	51685
#	85277
#	120130
#	139057
#	157770
#	194897
#
# Disc length: 2787 seconds
#
# Revision: 2
# Processed by: cddbd v1.5.1PL2 Copyright (c) Steve Scherf et al.
# Submitted via: CDex 1.51
#
DISCID=690ae108
DTITLE=Artiste inconnu - Consecration CD 7
DYEAR=1980
DGENRE=Jazz
TTITLE0=Re: Person I Knew
TTITLE1=Laurie
TTITLE2=Bill's Hit Tune
TTITLE3=The Two Lonely People
TTITLE4=Theme from M.A.S.H
TTITLE5=My Foolish Heart
TTITLE6=Days of Wine and Roses
TTITLE7=But Beautiful
EXTD=YEAR: 1980
EXTT0=
EXTT1=
EXTT2=
EXTT3=
EXTT4=
EXTT5=
EXTT6=
EXTT7=
PLAYORDER=
